<svg width="445" height="98" viewBox="0 0 445 98" fill="none" xmlns="http://www.w3.org/2000/svg">
<path d="M33.3204 94.8603L55.8863 77.5351L54.344 65.6329L65.6269 71.2671L69.1174 55.2801L80.1568 80.9156C84.7565 84.6248 94.4431 92.4376 96.3912 94.0151C98.8264 95.9871 101.099 97.9591 105.077 95.8462C108.259 94.156 106.781 90.3529 105.645 88.6627C93.5772 61.7125 69.2797 7.3895 68.6303 5.69924C67.8186 3.58642 66.3575 -0.568793 61.7307 0.0650534C58.0292 0.57213 57.158 2.99953 57.185 4.14984C55.8322 12.6715 53.0128 30.4333 52.5582 33.3068C51.99 36.8986 51.0971 38.3071 49.7172 39.0114C48.6133 39.5748 44.7657 39.2461 42.9799 39.0114L8.64408 35.9126C6.66889 35.537 2.39382 35.4759 1.09507 38.2367C-0.203686 40.9974 2.06914 43.0492 3.36789 43.73C9.34757 47.2748 23.0116 55.3505 29.83 59.2944C36.6485 63.2384 35.3768 67.8631 34.2945 70.2811C33.2122 72.6991 30.0898 80.0423 26.2584 90.0712C24.9597 93.0291 23.9044 96.0575 26.5831 97.1139C28.7261 97.9591 31.9676 95.9636 33.3204 94.8603Z" fill="#8D2E26"/>
<path fill-rule="evenodd" clip-rule="evenodd" d="M208.742 65.4141L236.006 88.2016C237.072 89.2025 239.927 91.0493 242.819 90.4293C246.435 89.6543 247.364 86.9435 248.048 83.8234C248.595 81.3272 253.511 60.8367 255.9 50.9035C256.026 49.6928 255.671 46.6828 253.243 44.3277C250.209 41.384 245.536 42.0969 242.937 43.0798C240.857 43.8661 219.218 51.3803 208.658 55.0391C207.331 55.5208 204.756 57.0418 205.07 59.2725C205.462 62.0609 207.42 64.3087 208.742 65.4141ZM228.09 64.7411L228.08 64.7304C227.47 64.0859 226.3 62.8502 226.638 61.8866C227.063 60.6754 227.47 60.5015 228.995 59.8494L237.129 56.3718C237.793 56.1307 239.318 55.8478 240.101 56.6455C241.08 57.6426 240.859 58.7669 240.617 59.6427C240.423 60.3434 238.487 66.0447 237.543 68.8078C237.348 69.4062 236.664 70.6253 235.492 70.7146C234.246 70.8095 233.498 70.0401 232.738 69.2577C232.604 69.1198 232.47 68.9816 232.333 68.8476C232.116 68.6367 231.749 68.2892 231.313 67.8756C230.268 66.8853 228.824 65.5168 228.09 64.7411Z" fill="#574634"/>
<path d="M369.117 82.5341H360.614V51.3463H369.117V82.5341Z" fill="#574634"/>
<path d="M354.764 81.7927C353.772 82.1016 352.39 82.3797 350.619 82.6268C348.883 82.8431 346.81 82.9512 344.401 82.9512C341.354 82.9512 338.75 82.6114 336.589 81.9317C334.463 81.2211 332.851 80.0317 331.752 78.3634C330.654 76.6642 330.105 74.3163 330.105 71.3195C330.105 67.2415 331.168 64.291 333.294 62.4683C335.455 60.6455 338.785 59.7341 343.285 59.7341C346.509 59.7341 349.042 60.1358 350.885 60.939C352.762 61.7423 354.091 62.8854 354.87 64.3683C355.685 65.8203 356.093 67.5504 356.093 69.5585C356.093 70.1455 356.057 70.7789 355.986 71.4585C355.951 72.1382 355.862 72.8024 355.721 73.4512L355.508 73.6366H338.023C338.271 74.9959 338.998 75.8919 340.202 76.3244C341.442 76.7569 343.444 76.9732 346.208 76.9732C348.05 76.9732 349.574 76.9423 350.778 76.8805C352.018 76.7878 353.276 76.6642 354.552 76.5097L354.764 76.6488V81.7927ZM348.706 68.7707C348.706 68.0293 348.564 67.3959 348.28 66.8707C348.032 66.3146 347.519 65.8976 346.739 65.6195C345.96 65.3106 344.808 65.1561 343.285 65.1561C341.053 65.1561 339.582 65.4959 338.874 66.1756C338.201 66.8244 337.864 67.6894 337.864 68.7707H348.706Z" fill="#574634"/>
<path d="M326.081 51.578C326.187 52.6902 326.24 53.6171 326.24 54.3585C326.24 54.7911 326.223 55.239 326.187 55.7024C326.187 56.135 326.152 56.6293 326.081 57.1854C325.337 57.3089 324.611 57.4016 323.902 57.4634C323.193 57.5252 322.485 57.5561 321.776 57.5561C321.103 57.5561 320.412 57.5252 319.703 57.4634C319.03 57.4016 318.339 57.3089 317.631 57.1854C317.56 56.6602 317.507 56.1813 317.471 55.7488C317.436 55.2854 317.418 54.8374 317.418 54.4049C317.418 54.0033 317.436 53.5707 317.471 53.1073C317.507 52.6439 317.56 52.1341 317.631 51.578C318.339 51.4236 319.048 51.3309 319.757 51.3C320.501 51.2382 321.227 51.2073 321.936 51.2073C322.609 51.2073 323.282 51.2382 323.955 51.3C324.664 51.3309 325.372 51.4236 326.081 51.578ZM326.081 82.5342H317.578V59.9659H326.081V82.5342Z" fill="#574634"/>
<path d="M295.056 82.5342H286.553V59.9659H294.631L295.056 64.0902H295.216C295.712 62.7 296.597 61.6341 297.873 60.8927C299.148 60.1203 300.92 59.7341 303.187 59.7341C306.27 59.7341 308.537 60.4911 309.99 62.0049C311.478 63.5187 312.222 66.1447 312.222 69.8829V82.5342H303.719L303.666 71.3195C303.666 69.5894 303.365 68.3537 302.762 67.6122C302.16 66.8707 301.026 66.5 299.361 66.5C297.802 66.5 296.704 66.8398 296.066 67.5195C295.428 68.1683 295.092 69.2959 295.056 70.9024V82.5342Z" fill="#574634"/>
<path d="M266.698 59.7341C270.1 59.7341 272.845 60.0431 274.936 60.661C277.026 61.2789 278.55 62.4219 279.506 64.0902C280.498 65.7276 280.994 68.1065 280.994 71.2268V82.5341H273.288L273.023 80.4024H272.863C272.19 81.1748 271.145 81.7927 269.728 82.2561C268.31 82.7195 266.468 82.9512 264.2 82.9512C258.071 82.9512 255.006 80.4488 255.006 75.4439C255.006 73.3122 255.804 71.6439 257.398 70.439C259.028 69.2032 261.579 68.5854 265.051 68.5854H272.916C272.668 67.2878 272.03 66.4228 271.003 65.9902C269.976 65.5268 268.222 65.2951 265.742 65.2951C264.183 65.2951 262.642 65.4032 261.118 65.6195C259.63 65.8049 258.319 66.0211 257.185 66.2683L257.026 66.1756L257.079 60.8C257.788 60.6146 258.691 60.4447 259.789 60.2902C260.888 60.1049 262.039 59.9658 263.244 59.8732C264.484 59.7805 265.635 59.7341 266.698 59.7341ZM266.379 77.4829C268.576 77.4829 270.224 77.2512 271.322 76.7878C272.42 76.2935 272.987 75.5211 273.023 74.4707V73.3122H267.017C265.458 73.3122 264.36 73.513 263.722 73.9146C263.12 74.2854 262.819 74.7951 262.819 75.4439C262.819 76.2163 263.138 76.7569 263.775 77.0658C264.413 77.3439 265.281 77.4829 266.379 77.4829Z" fill="#574634"/>
<path d="M175.664 51.578C175.77 52.6902 175.823 53.6171 175.823 54.3585C175.823 54.7911 175.805 55.239 175.77 55.7024C175.77 56.135 175.735 56.6293 175.664 57.1854C174.92 57.3089 174.193 57.4016 173.485 57.4634C172.776 57.5252 172.068 57.5561 171.359 57.5561C170.686 57.5561 169.995 57.5252 169.286 57.4634C168.613 57.4016 167.922 57.3089 167.214 57.1854C167.143 56.6602 167.09 56.1813 167.054 55.7488C167.019 55.2854 167.001 54.8374 167.001 54.4049C167.001 54.0033 167.019 53.5707 167.054 53.1073C167.09 52.6439 167.143 52.1341 167.214 51.578C167.922 51.4236 168.631 51.3309 169.339 51.3C170.084 51.2382 170.81 51.2073 171.518 51.2073C172.192 51.2073 172.865 51.2382 173.538 51.3C174.247 51.3309 174.955 51.4236 175.664 51.578ZM175.664 82.5342H167.161V59.9659H175.664V82.5342Z" fill="#8D2E26"/>
<path d="M161.247 82.5341H152.744V51.3463H161.247V82.5341Z" fill="#8D2E26"/>
<path d="M146.86 51.578C146.966 52.6902 147.019 53.6171 147.019 54.3585C147.019 54.7911 147.001 55.239 146.966 55.7024C146.966 56.135 146.93 56.6293 146.86 57.1854C146.116 57.3089 145.389 57.4016 144.681 57.4634C143.972 57.5252 143.263 57.5561 142.555 57.5561C141.882 57.5561 141.191 57.5252 140.482 57.4634C139.809 57.4016 139.118 57.3089 138.409 57.1854C138.339 56.6602 138.285 56.1813 138.25 55.7488C138.215 55.2854 138.197 54.8374 138.197 54.4049C138.197 54.0033 138.215 53.5707 138.25 53.1073C138.285 52.6439 138.339 52.1341 138.409 51.578C139.118 51.4236 139.827 51.3309 140.535 51.3C141.279 51.2382 142.006 51.2073 142.714 51.2073C143.387 51.2073 144.061 51.2382 144.734 51.3C145.442 51.3309 146.151 51.4236 146.86 51.578ZM146.86 82.5342H138.356V59.9659H146.86V82.5342Z" fill="#8D2E26"/>
<path d="M132.985 81.7927C131.993 82.1016 130.612 82.3797 128.84 82.6268C127.104 82.8431 125.031 82.9512 122.622 82.9512C119.575 82.9512 116.971 82.6114 114.81 81.9317C112.684 81.2211 111.072 80.0317 109.974 78.3634C108.875 76.6642 108.326 74.3163 108.326 71.3195C108.326 67.2415 109.389 64.291 111.515 62.4683C113.676 60.6455 117.006 59.7341 121.506 59.7341C124.73 59.7341 127.263 60.1358 129.106 60.939C130.984 61.7423 132.312 62.8854 133.092 64.3683C133.907 65.8203 134.314 67.5504 134.314 69.5585C134.314 70.1455 134.279 70.7789 134.208 71.4585C134.172 72.1382 134.084 72.8024 133.942 73.4512L133.729 73.6366H116.245C116.493 74.9959 117.219 75.8919 118.424 76.3244C119.664 76.7569 121.665 76.9732 124.429 76.9732C126.271 76.9732 127.795 76.9423 128.999 76.8805C130.24 76.7878 131.497 76.6642 132.773 76.5097L132.985 76.6488V81.7927ZM126.927 68.7707C126.927 68.0293 126.785 67.3959 126.502 66.8707C126.254 66.3146 125.74 65.8976 124.96 65.6195C124.181 65.3106 123.03 65.1561 121.506 65.1561C119.274 65.1561 117.804 65.4959 117.095 66.1756C116.422 66.8244 116.085 67.6894 116.085 68.7707H126.927Z" fill="#8D2E26"/>
</svg>
