<svg width="316" height="278" viewBox="0 0 316 278" fill="none" xmlns="http://www.w3.org/2000/svg">
<path fill-rule="evenodd" clip-rule="evenodd" d="M225.424 107.248L246.925 161.166C247.662 163.446 250.422 168.247 255.566 169.213C261.996 170.42 266.015 166.799 270.034 162.373C273.249 158.832 300.309 130.049 313.438 116.1C314.777 114.289 317.055 109.34 315.447 104.029C313.438 97.3898 305.4 95.3779 300.376 95.1767C296.357 95.0158 255.164 92.2931 235.07 90.9518C232.524 90.8177 227.032 91.4749 225.424 95.1767C223.415 99.804 224.382 104.632 225.424 107.248ZM256.479 118.901L256.473 118.877C256.12 117.462 255.442 114.749 256.881 113.469C258.69 111.859 259.493 111.859 262.507 111.859H278.583C279.856 111.926 282.521 112.503 283.004 114.273C283.607 116.487 282.2 118.096 280.994 119.303C280.03 120.269 271.617 127.887 267.531 131.575C266.66 132.38 264.437 133.829 262.507 133.185C260.457 132.501 260.005 130.799 259.545 129.067C259.464 128.763 259.383 128.457 259.292 128.155C259.15 127.681 258.9 126.893 258.602 125.955C257.89 123.708 256.904 120.604 256.479 118.901Z" fill="#574634"/>
<path d="M80.7344 270.982L136.597 221.49L132.779 187.49L160.71 203.585L169.35 157.915L196.679 231.147C208.065 241.743 232.045 264.061 236.867 268.568C242.896 274.201 248.522 279.834 258.368 273.798C266.245 268.97 262.588 258.106 259.775 253.277C229.901 176.29 169.752 21.1091 168.145 16.2807C166.135 10.2451 162.518 -1.62484 151.064 0.185834C141.901 1.63437 139.745 8.56857 139.812 11.8546C136.463 36.1981 129.483 86.9371 128.358 95.1455C126.951 105.406 124.741 109.43 121.325 111.442C118.592 113.051 109.067 112.112 104.647 111.442L19.6477 102.589C14.7581 101.516 4.17508 101.342 0.959989 109.228C-2.2551 117.115 3.37131 122.976 6.5864 124.921C21.3892 135.047 55.2146 158.117 72.0939 169.383C88.9731 180.649 85.825 193.861 83.1457 200.768C80.4665 207.675 72.7369 228.652 63.2523 257.301C60.0373 265.751 57.425 274.402 64.0561 277.42C69.361 279.834 77.3854 274.134 80.7344 270.982Z" fill="#8D2E26"/>
</svg>
